<svg xmlns="http://www.w3.org/2000/svg" xmlns:xlink="http://www.w3.org/1999/xlink" viewBox="0 0 1774 1607" width="200" fill-rule="evenodd" stroke-linejoin="round" stroke-miterlimit="2" xmlns:v="https://vecta.io/nano"><style><![CDATA[.B{fill:#252529}.C{fill:#91432c}.D{fill:#f49e6c}.E{fill:#19181d}.F{fill:#157996}]]></style><g fill-rule="nonzero"><path d="M1049.61 1091.3c23.69 38.96 135.39 108.31 181.46-18.97 54.72-170.42-221.47-364.306-436.049-364.306-17.54 0-34.807 1.238-51.771 3.421v63.215c172.97 18.65 217.38 170.15 306.36 316.64z" class="C"/><path d="M1049.61 1091.3l-6.39 3.89c3.85 6.32 9.4 12.88 16.28 19.38 10.31 9.72 23.63 19.21 38.68 26.38 7.52 3.58 15.48 6.58 23.72 8.69s16.76 3.34 25.38 3.34c8.69 0 17.49-1.25 26.11-4.1 12.94-4.26 25.4-12.14 36.4-24.28 11.02-12.13 20.61-28.45 28.32-49.73l.08-.25c5.02-15.61 7.39-31.44 7.39-47.26 0-20.7-4.06-41.37-11.46-61.59-12.97-35.41-36.12-69.54-66.12-100.92-45.02-47.06-105.5-88-171.08-117.32-65.59-29.294-136.28-46.974-201.899-46.99-17.892 0-35.48 1.263-52.727 3.482-3.74.481-6.528 3.651-6.528 7.423v63.215c0 3.82 2.887 7.04 6.682 7.44 42.206 4.57 76.17 17.12 105.092 35.61 21.69 13.88 40.56 31.14 57.74 51.06 25.78 29.86 47.72 65.69 69.45 104.47 21.75 38.77 43.29 80.46 68.49 121.94v.01l6.39-3.89 6.4-3.89c-22.09-36.37-41.5-73.2-60.93-108.38-14.57-26.39-29.16-51.85-44.94-75.49-11.83-17.72-24.35-34.42-38.05-49.69-20.55-22.9-43.81-42.59-71.35-57.52-27.542-14.94-59.328-25.08-96.688-29.11l-.802 7.44h7.483v-63.215h-7.483l.955 7.422c16.682-2.146 33.628-3.359 50.816-3.359 47.939-.007 99.349 9.908 149.409 27.292 37.54 13.04 74.31 30.26 108.31 50.57 50.99 30.46 95.71 67.88 127.45 108.27 15.88 20.19 28.51 41.11 37.14 62.22 8.64 21.12 13.28 42.42 13.28 63.5 0 14.33-2.14 28.57-6.67 42.68l7.13 2.29-7.04-2.55c-4.78 13.23-10.26 24.11-16.16 32.96-8.87 13.28-18.66 21.98-28.83 27.47-10.19 5.48-20.86 7.79-31.76 7.8-9.6.01-19.35-1.83-28.8-4.97-14.17-4.7-27.62-12.36-38.61-20.79-5.49-4.21-10.37-8.61-14.42-12.87-4.06-4.26-7.27-8.4-9.44-11.97l-6.4 3.89z" class="B"/><path d="M195.951 1091.3c-23.678 38.96-135.366 108.31-181.436-18.97-54.743-170.42 221.465-364.306 436.03-364.306 17.549 0 34.816 1.238 51.771 3.421v63.215c-172.959 18.65-217.372 170.15-306.365 316.64z" class="C"/><path d="M195.951 1091.3l-6.395-3.89c-2.888 4.77-7.645 10.52-13.751 16.27-9.16 8.64-21.349 17.34-34.844 23.76-6.747 3.21-13.819 5.87-20.998 7.71s-14.464 2.86-21.66 2.86c-7.265 0-14.438-1.04-21.42-3.34-5.238-1.73-10.376-4.18-15.391-7.48-7.517-4.95-14.776-11.83-21.542-21.23-6.761-9.39-13.012-21.3-18.398-36.18l-7.037 2.55 7.125-2.29a138.82 138.82 0 0 1-6.673-42.69c0-18.74 3.668-37.65 10.549-56.45 12.03-32.9 33.959-65.48 62.882-95.71 43.366-45.37 102.397-85.42 166.368-114 63.963-28.592 132.864-45.698 195.779-45.682 17.197 0 34.143 1.213 50.815 3.359l.956-7.422h-7.484v63.215h7.484l-.802-7.44c-44.276 4.76-80.725 18.14-111.553 37.88-23.127 14.8-43.082 33.12-61.004 53.89-26.886 31.17-49.254 67.85-71.173 106.93-21.912 39.08-43.37 80.58-68.229 121.49h.001l6.395 3.89 6.396 3.88c22.4-36.87 41.912-73.91 61.246-108.92 14.498-26.25 28.894-51.36 44.284-74.4 11.542-17.29 23.64-33.41 36.744-48.01 19.661-21.91 41.552-40.38 67.346-54.37 25.799-13.98 55.542-23.53 91.151-27.38 3.795-.4 6.681-3.62 6.681-7.44v-63.215c0-3.772-2.787-6.941-6.528-7.423-17.237-2.219-34.825-3.482-52.726-3.482-49.992.007-102.926 10.285-154.308 28.121-38.536 13.381-76.201 31.019-111.074 51.859-52.306 31.26-98.349 69.66-131.541 111.86-16.591 21.1-29.968 43.17-39.23 65.81C5.135 980.82 0 1004.05 0 1027.35c-.001 15.82 2.374 31.66 7.39 47.27l.088.25c5.136 14.19 11.11 26.16 17.788 36.17 10.005 15.02 21.656 25.61 34.182 32.35 12.52 6.75 25.819 9.6 38.855 9.59 11.494 0 22.805-2.17 33.515-5.73 16.067-5.35 30.813-13.79 42.987-23.12 6.086-4.66 11.528-9.56 16.169-14.44 4.641-4.89 8.483-9.76 11.372-14.5l.001-.01-6.396-3.88z" class="B"/><path d="M1019.33 1035.38c0 219.01-177.54 396.55-396.537 396.55-219.009 0-396.547-177.54-396.547-396.55 0-218.99 177.538-396.529 396.547-396.529 218.997 0 396.537 177.539 396.537 396.529z" fill="#ab5037"/><path d="M1026.81 1035.38h-14.96c-.01 107.46-43.54 204.68-113.96 275.11-70.42 70.42-167.64 113.96-275.097 113.96s-204.68-43.54-275.111-113.96c-70.417-70.43-113.949-167.65-113.953-275.11.004-107.45 43.536-204.67 113.953-275.1 70.431-70.411 167.649-113.942 275.111-113.946 107.457.004 204.677 43.535 275.097 113.946 70.42 70.43 113.95 167.65 113.96 275.1h14.96c.01-111.54-45.23-212.59-118.33-285.68-73.09-73.099-174.144-118.337-285.687-118.333-111.547-.004-212.602 45.234-285.693 118.333-73.104 73.09-118.341 174.14-118.338 285.68-.003 111.55 45.234 212.6 118.338 285.7 73.091 73.1 174.145 118.34 285.693 118.34s212.597-45.24 285.687-118.34c73.1-73.1 118.34-174.15 118.33-285.7z" class="B"/><path d="M932.059 1083.84c0 170.81-138.462 309.25-309.267 309.25-170.814 0-309.278-138.44-309.278-309.25 0-170.82 138.464-309.27 309.278-309.27 170.805 0 309.267 138.45 309.267 309.27z" class="D"/><path d="M939.539 1083.84h-14.96c-.01 83.36-33.77 158.76-88.39 213.39-54.638 54.62-130.037 88.38-213.397 88.38s-158.767-33.76-213.403-88.38c-54.626-54.63-88.388-130.03-88.392-213.39.003-83.37 33.766-158.77 88.392-213.4 54.637-54.63 130.038-88.39 213.403-88.39s158.759 33.76 213.397 88.39c54.62 54.63 88.38 130.03 88.39 213.4h14.96c.01-87.45-35.46-166.69-92.77-223.99-57.296-57.3-136.532-92.77-223.977-92.77-87.45 0-166.688 35.47-223.986 92.77-57.312 57.3-92.78 136.54-92.776 223.99-.004 87.45 35.464 166.68 92.776 223.97 57.298 57.31 136.536 92.77 223.986 92.77 87.445 0 166.68-35.46 223.977-92.77 57.31-57.29 92.78-136.52 92.77-223.97z" class="B"/><path d="M505.103 196.077c0 81.402-65.978 147.389-147.371 147.389-81.382 0-147.36-65.987-147.36-147.389 0-81.383 65.978-147.351 147.36-147.351 81.393 0 147.371 65.968 147.371 147.351z" fill="#ab5037"/><path d="M512.586 196.077h-14.967c-.001 19.338-3.914 37.722-10.989 54.456-10.612 25.098-28.36 46.475-50.69 61.561s-49.209 23.886-78.208 23.889c-19.333-.001-37.712-3.915-54.442-10.991-25.092-10.614-46.465-28.363-61.549-50.697s-23.883-49.216-23.886-78.218c.002-19.334 3.915-37.712 10.99-54.442 10.611-25.091 28.358-46.462 50.686-61.544 22.334-15.082 49.206-23.879 78.201-23.882 19.336.001 37.718 3.914 54.45 10.988 25.094 10.611 46.468 28.356 61.552 50.682 15.084 22.332 23.882 49.203 23.885 78.198h14.967c.001-21.359-4.333-41.745-12.172-60.273-11.759-27.796-31.385-51.422-56.095-68.115s-54.54-26.45-86.587-26.447c-21.358-.001-41.744 4.333-60.273 12.17-27.797 11.758-51.425 31.38-68.121 56.088s-26.452 54.534-26.45 86.577c0 21.362 4.333 41.753 12.172 60.285 11.759 27.803 31.383 51.436 56.093 68.133 24.704 16.699 54.536 26.458 86.579 26.455 21.361.001 41.749-4.334 60.28-12.174 27.8-11.761 51.429-31.389 68.124-56.103s26.453-54.547 26.45-86.596z" class="B"/><path d="M447.203 196.077c0 49.431-40.058 89.47-89.471 89.47-49.402 0-89.46-40.039-89.46-89.47 0-49.384 40.058-89.451 89.46-89.451 49.413 0 89.471 40.067 89.471 89.451z" class="D"/><path d="M454.686 196.077h-14.967c-.001 11.345-2.294 22.113-6.44 31.918-6.217 14.705-16.623 27.236-29.712 36.076s-28.828 13.99-45.835 13.993c-11.338-.001-22.101-2.294-31.905-6.438-14.701-6.215-27.233-16.618-36.075-29.707s-13.994-28.829-13.997-45.842c.001-11.333 2.294-22.093 6.44-31.895 6.217-14.699 16.623-27.232 29.711-36.074s28.825-13.996 45.826-13.999c11.34.001 22.106 2.295 31.91 6.441 14.704 6.218 27.238 16.625 36.08 29.712 8.841 13.092 13.994 28.821 13.997 45.815h14.967c.001-13.36-2.713-26.126-7.622-37.726-7.366-17.404-19.649-32.192-35.119-42.645-15.464-10.453-34.158-16.567-54.213-16.564-13.364-.001-26.133 2.714-37.735 7.624-17.407 7.365-32.194 19.649-42.646 35.117a96.5 96.5 0 0 0-16.563 54.194c-.001 13.37 2.713 26.144 7.622 37.748 7.365 17.411 19.649 32.198 35.117 42.648s34.156 16.561 54.205 16.558c13.366.001 26.137-2.712 37.741-7.62 17.408-7.362 32.198-19.643 42.651-35.113 10.453-15.464 16.566-34.161 16.562-54.221z" class="B"/><path d="M989.309 513.822c0 202.445-164.093 366.537-366.517 366.537-202.434 0-366.515-164.092-366.515-366.537 0-202.424 164.081-366.515 366.515-366.515 202.424 0 366.517 164.091 366.517 366.515z" class="C"/><path d="M996.789 513.822h-14.96c-.01 99.18-40.18 188.896-105.16 253.897-64.997 64.98-154.708 105.15-253.877 105.16-99.174-.01-188.885-40.18-253.879-105.16-64.981-65.001-105.149-154.717-105.153-253.897.004-99.169 40.171-188.88 105.153-253.875 64.994-64.983 154.704-105.153 253.879-105.156 99.169.003 188.88 40.173 253.877 105.156 64.98 64.996 105.15 154.706 105.16 253.875h14.96c.01-103.254-41.87-196.802-109.54-264.458-67.655-67.668-161.202-109.544-264.457-109.541-103.26-.003-196.807 41.873-264.462 109.541-67.668 67.657-109.541 161.203-109.537 264.458-.004 103.265 41.869 196.817 109.537 264.477 67.655 67.67 161.202 109.55 264.462 109.54 103.255.01 196.802-41.87 264.457-109.54 67.67-67.66 109.55-161.211 109.54-264.477z" class="B"/><path d="M622.792 872.879c-99.174-.01-188.885-40.18-253.879-105.16-64.981-65.001-105.149-154.717-105.153-253.897.004-99.169 40.171-188.88 105.153-253.875 19.827-19.823 41.953-37.337 65.946-52.106-70.071 66.73-113.784 160.889-113.784 265.3 0 202.444 164.091 366.528 366.516 366.528 45.214 0 88.501-8.22 128.476-23.2-55.79 35.71-122.1 56.4-193.275 56.41z" fill="#6e301b"/><path d="M622.792 880.359c-202.434 0-366.515-164.092-366.515-366.537 0-144.671 83.847-269.726 205.581-329.312-9.374 7.34-18.388 15.131-26.999 23.331-23.993 14.769-46.119 32.283-65.946 52.106-64.982 64.995-105.149 154.706-105.153 253.875.004 99.18 40.172 188.896 105.153 253.897 64.994 64.98 154.705 105.15 253.879 105.16 71.175-.01 137.485-20.7 193.275-56.41 11.072-4.15 21.902-8.83 32.442-13.99-62.23 48.74-140.563 77.88-225.717 77.88z" class="E"/><path d="M877.769 697.1c0 101.189-114.155 183.259-254.977 183.259-140.832 0-254.994-82.07-254.994-183.259 0-101.203 114.162-112.632 254.994-112.632 140.822 0 254.977 11.429 254.977 112.632z" fill="#dd9062"/><g class="B"><path d="M885.249 697.1h-14.97c0 23.881-6.701 46.619-19 67.529-9.22 15.67-21.6 30.29-36.65 43.39-22.564 19.66-51.117 35.9-83.743 47.19-32.623 11.3-69.306 17.67-108.094 17.67-34.481 0-67.298-5.03-97.079-14.08-44.679-13.58-82.49-36.24-108.914-64.37-13.219-14.06-23.599-29.48-30.669-45.81-7.07-16.345-10.846-33.603-10.848-51.519.001-11.95 1.681-22.357 4.782-31.489 2.718-7.992 6.521-15.024 11.356-21.326 4.233-5.51 9.267-10.463 15.1-14.935 10.198-7.824 22.87-14.165 37.698-19.204 22.232-7.568 49.259-12.17 79.525-14.817 30.268-2.655 63.772-3.379 99.049-3.378 35.103-.001 68.45.716 98.601 3.339 22.611 1.965 43.421 5.006 61.786 9.565 13.774 3.416 26.166 7.685 36.924 12.937 8.076 3.937 15.216 8.423 21.396 13.504 9.26 7.633 16.35 16.557 21.23 27.295 4.87 10.741 7.55 23.381 7.55 38.509h14.97c0-13.35-1.89-25.439-5.58-36.303-3.22-9.504-7.831-18.054-13.65-25.627-5.09-6.629-11.1-12.509-17.86-17.698-11.86-9.083-26.018-16.063-41.987-21.496-23.963-8.14-52.046-12.834-83.031-15.557-30.982-2.715-64.868-3.434-100.349-3.435-35.311.001-69.043.713-99.904 3.395-23.148 2.015-44.684 5.134-64.099 9.949-14.56 3.614-27.934 8.182-39.886 14.012-8.963 4.373-17.127 9.461-24.344 15.399-10.824 8.894-19.496 19.75-25.35 32.667-5.865 12.914-8.899 27.801-8.894 44.694-.007 26.715 7.561 52.179 21.072 75.119 10.132 17.22 23.591 33.04 39.724 47.09 24.203 21.07 54.421 38.18 88.68 50.05 34.261 11.86 72.574 18.48 113.001 18.48 35.933 0 70.196-5.23 101.426-14.73 46.839-14.24 86.894-38.06 115.461-68.43 14.269-15.19 25.659-32.03 33.49-50.12 7.83-18.084 12.08-37.427 12.08-57.459z"/><path d="M771.897 563.908c0 59.215-66.757 107.175-149.105 107.175s-149.124-47.96-149.124-107.175c0-59.186 66.776-65.861 149.124-65.861s149.105 6.675 149.105 65.861z"/><path d="M622.792 774.569s-2.202-11.88-3.751-29.69c-1.667-17.816-2.758-41.553-2.806-65.318.038-23.747 1.11-47.493 2.786-65.306 1.559-17.822 3.771-29.69 3.771-29.69s2.212 11.868 3.771 29.69c1.676 17.813 2.748 41.559 2.787 65.306-.039 23.765-1.13 47.502-2.806 65.318-1.55 17.81-3.752 29.69-3.752 29.69z"/><path d="M659.508 798.769c0 20.29-16.438 36.75-36.716 36.75-20.287 0-36.735-16.46-36.735-36.75 0-20.28 16.448-36.71 36.735-36.71 20.278 0 36.716 16.43 36.716 36.71zm112.389-366.456l.623 6.801c.312 2.135.244 4.746-.467 7.903-.449 3.206-1.111 6.889-2.904 10.368-.799 1.783-1.462 3.781-2.524 5.652l-3.829 5.466c-2.534 3.869-6.461 6.947-10.349 10.183-4.345 2.591-8.76 5.709-14.08 6.976-5.057 2.115-10.64 2.105-16.087 2.836-6.286-.819-9.657-.546-15.757-2.739-5.768-1.334-10.055-4.482-14.421-7.054-3.898-3.245-7.815-6.314-10.358-10.202l-3.83-5.466c-1.062-1.852-1.734-3.859-2.533-5.652-1.783-3.528-2.417-7.084-2.845-10.222-.712-3.05-.809-5.759-.507-8.019.312-4.434.634-6.831.634-6.831l1.958 6.5c.39 2.046 1.384 4.365 2.719 6.918 1.169 2.592 2.543 5.408 4.696 8.107 1.744 2.923 4.297 5.505 7.016 8.146 2.485 2.816 6.188 4.638 9.345 7.025 3.664 1.745 7.434 3.664 11.108 4.444 2.855 1.5 9.442 1.432 12.775 1.919 4.17-.574 8.516-.234 12.443-1.832 4.122-.857 7.766-2.786 11.439-4.511 3.157-2.407 6.88-4.19 9.355-7.035 2.718-2.651 5.281-5.233 7.025-8.156 2.173-2.738 3.488-5.437 4.638-7.981 1.345-2.426 2.359-4.852 2.758-7.006l1.959-6.538zm-298.229 0l1.968 6.538c.39 2.154 1.413 4.58 2.758 7.006 1.15 2.544 2.455 5.243 4.638 7.981 1.744 2.923 4.307 5.505 7.025 8.156 2.475 2.845 6.198 4.628 9.355 7.035 3.683 1.725 7.318 3.654 11.45 4.511 3.907 1.598 8.272 1.258 12.443 1.832 3.322-.487 9.919-.419 12.764-1.919 3.684-.78 7.445-2.699 11.109-4.444 3.157-2.387 6.86-4.209 9.344-7.025 2.709-2.641 5.282-5.223 7.026-8.146 2.163-2.699 3.527-5.515 4.687-8.107 1.344-2.553 2.338-4.872 2.718-6.918l1.979-6.5s.301 2.397.613 6.85c.303 2.241.205 4.95-.487 8-.448 3.138-1.072 6.694-2.865 10.222-.799 1.793-1.461 3.8-2.523 5.652l-3.849 5.466c-2.514 3.888-6.451 6.957-10.339 10.202-4.365 2.572-8.643 5.72-14.431 7.054-6.1 2.193-9.471 1.92-15.746 2.739-5.457-.731-11.041-.721-16.088-2.836-5.32-1.267-9.734-4.385-14.1-6.976-3.868-3.236-7.805-6.314-10.338-10.183l-3.83-5.466c-1.052-1.852-1.715-3.869-2.533-5.652-1.774-3.479-2.446-7.162-2.894-10.368-.712-3.157-.789-5.759-.478-7.903l.624-6.801zm68.589-97.685c-2.534-9.208-12.063-14.606-21.242-12.082l-118.304 32.535c-9.208 2.524-14.636 12.034-12.082 21.242 2.523 9.189 12.024 14.597 21.232 12.093l118.303-32.545a17.31 17.31 0 0 0 12.093-21.243zm161.07 0c2.534-9.208 12.044-14.606 21.242-12.082l118.31 32.535c9.189 2.524 14.62 12.034 12.079 21.242-2.529 9.189-12.049 14.597-21.259 12.093L715.4 355.871c-9.198-2.534-14.606-12.044-12.073-21.243z"/></g><use xlink:href="#B" class="F"/><use xlink:href="#C" class="B"/><use xlink:href="#B" class="F"/><use xlink:href="#C" class="B"/><path d="M941.599 334.502c-40.17-9.453-77.37-25.318-110.73-44.038-53.064-29.775-96.373-66.78-126.337-96.313-14.983-14.765-26.633-27.658-34.515-36.832l-2.735-3.213c60.156 31.664 147.989 71.071 243.607 91.519 48.68-93.362 119.87-118.935 185.15-118.935 43.75 0 84.84 11.484 114.74 21.75 1.54 2.373 3.04 4.779 4.51 7.218-7.04-2.164-14.87-4.313-23.33-6.215-16.8-3.778-36.06-6.591-56.47-6.593-18.55.001-38.06 2.329-57.44 8.432-14.53 4.575-28.98 11.279-42.83 20.674-20.77 14.086-40.12 34.223-56.45 62.006-15.42 26.222-28.18 59.232-37.17 100.54z" fill="#0b5b72"/><path d="M947.369 343.466c-175.473-37.515-295.237-196.159-295.237-196.159.097-.38.243-.74.331-1.14l14.819 7.939 2.735 3.213c7.882 9.174 19.532 22.067 34.515 36.832 29.964 29.533 73.273 66.538 126.337 96.313 33.36 18.72 70.56 34.585 110.73 44.038 8.99-41.308 21.75-74.318 37.17-100.54 16.33-27.783 35.68-47.92 56.45-62.006 13.85-9.395 28.3-16.099 42.83-20.674 19.38-6.103 38.89-8.431 57.44-8.432 20.41.002 39.67 2.815 56.47 6.593 8.46 1.902 16.29 4.051 23.33 6.215-1.47-2.439-2.97-4.845-4.51-7.218l11.23 3.973c3.17 5.36 6.21 10.816 8.98 16.487-20.56-7.662-56.06-18.566-95.5-18.566-71.71 0-156.44 36.043-188.12 193.132z" class="E"/><path d="M1289.01 196.106c0 27.342-22.18 49.519-49.55 49.519-27.34 0-49.52-22.177-49.52-49.519 0-27.362 22.18-49.539 49.52-49.539 27.37 0 49.55 22.177 49.55 49.539z" fill="#0c5d74"/><path d="M1296.49 196.106h-14.96c-.01 5.822-1.18 11.331-3.31 16.356-3.18 7.533-8.52 13.967-15.24 18.502s-14.78 7.175-23.52 7.178a41.91 41.91 0 0 1-16.36-3.301c-7.53-3.186-13.97-8.528-18.5-15.241a41.88 41.88 0 0 1-7.18-23.494c0-5.828 1.18-11.341 3.31-16.369a42.16 42.16 0 0 1 15.24-18.51c6.71-4.535 14.76-7.174 23.49-7.177 5.83.001 11.35 1.177 16.37 3.302 7.54 3.187 13.98 8.529 18.52 15.245a41.91 41.91 0 0 1 7.18 23.509h14.96c0-7.853-1.59-15.373-4.48-22.199a57.24 57.24 0 0 0-20.66-25.082c-9.09-6.147-20.1-9.745-31.89-9.742-7.85-.001-15.37 1.596-22.19 4.485-10.24 4.334-18.93 11.554-25.07 20.651-6.15 9.091-9.75 20.103-9.74 31.887 0 7.849 1.59 15.365 4.48 22.188 4.33 10.239 11.55 18.927 20.65 25.073 9.08 6.146 20.09 9.745 31.87 9.742 7.85.001 15.38-1.596 22.2-4.483 10.25-4.333 18.94-11.552 25.09-20.646a56.69 56.69 0 0 0 9.74-31.874z" class="B"/><path d="M1098.8 1366.55c0 122.08-98.96 221.04-221.03 221.04-122.077 0-221.048-98.96-221.048-221.04 0-122.09 98.971-221.04 221.048-221.04 122.07 0 221.03 98.95 221.03 221.04z" class="C"/><path d="M1106.29 1366.55h-14.97c0 59-23.89 112.34-62.55 151.01-38.67 38.65-92.01 62.54-151 62.54-58.997 0-112.34-23.89-151.011-62.54-38.66-38.67-62.55-92.01-62.553-151.01.003-59 23.893-112.35 62.553-151.01 38.671-38.66 92.014-62.55 151.011-62.55 58.99 0 112.33 23.89 151 62.55 38.66 38.66 62.55 92.01 62.55 151.01h14.97c0-63.09-25.59-120.27-66.94-161.6-41.33-41.34-98.5-66.93-161.58-66.93s-120.262 25.59-161.595 66.93c-41.344 41.33-66.94 98.51-66.936 161.6-.004 63.08 25.592 120.26 66.936 161.59 41.333 41.34 98.513 66.93 161.595 66.93s120.25-25.59 161.58-66.93c41.35-41.33 66.94-98.51 66.94-161.59z" class="B"/><path d="M997.309 1446.39c0 66.02-53.53 119.54-119.54 119.54-66.019 0-119.543-53.52-119.543-119.54 0-66.03 53.524-119.54 119.543-119.54 66.01 0 119.54 53.51 119.54 119.54z" class="D"/><path d="M1004.79 1446.39h-14.96c-.01 15.49-3.14 30.21-8.81 43.61-8.5 20.1-22.72 37.23-40.61 49.31s-39.41 19.13-62.64 19.13c-15.49 0-30.21-3.13-43.62-8.8-20.096-8.5-37.221-22.72-49.306-40.61s-19.131-39.41-19.134-62.64c.001-15.5 3.136-30.22 8.804-43.62 8.5-20.1 22.719-37.22 40.608-49.3 17.898-12.08 39.408-19.13 62.648-19.13 15.49 0 30.21 3.13 43.61 8.8 20.1 8.5 37.23 22.71 49.31 40.6s19.13 39.41 19.14 62.65h14.96c0-17.52-3.55-34.25-9.98-49.45-9.65-22.81-25.75-42.18-46.02-55.88-20.26-13.69-44.74-21.69-71.02-21.69-17.52 0-34.25 3.55-49.45 9.98-22.801 9.65-42.181 25.74-55.877 46.01-13.696 20.26-21.703 44.74-21.7 71.03-.001 17.51 3.555 34.24 9.986 49.44 9.648 22.81 25.745 42.19 46.015 55.88 20.266 13.7 44.746 21.7 71.026 21.7 17.51 0 34.24-3.55 49.44-9.98 22.81-9.65 42.19-25.75 55.88-46.02 13.7-20.26 21.71-44.74 21.7-71.02z" class="B"/><path d="M588.843 1366.55c0 122.08-98.951 221.04-221.045 221.04-122.065 0-221.026-98.96-221.026-221.04 0-122.09 98.961-221.04 221.026-221.04 122.094 0 221.045 98.95 221.045 221.04z" class="C"/><path d="M596.327 1366.55H581.36c-.004 59-23.889 112.34-62.546 151.01-38.669 38.65-92.011 62.54-151.016 62.54-58.989 0-112.328-23.89-150.996-62.54-38.656-38.67-62.543-92.01-62.547-151.01.004-59 23.892-112.35 62.547-151.01 38.668-38.66 92.006-62.55 150.996-62.55 59.005 0 112.347 23.89 151.016 62.55 38.657 38.66 62.542 92.01 62.546 151.01h14.967c.004-63.09-25.587-120.27-66.929-161.6-41.331-41.34-98.511-66.93-161.6-66.93-63.075 0-120.25 25.59-161.579 66.93-41.341 41.33-66.935 98.51-66.931 161.6-.003 63.08 25.59 120.26 66.931 161.59 41.329 41.34 98.504 66.93 161.579 66.93 63.089 0 120.269-25.59 161.6-66.93 41.342-41.33 66.933-98.51 66.929-161.59z" class="B"/><path d="M487.349 1446.39c0 66.02-53.515 119.54-119.551 119.54-66.007 0-119.551-53.52-119.551-119.54 0-66.03 53.544-119.54 119.551-119.54 66.036 0 119.551 53.51 119.551 119.54z" class="D"/><path d="M494.832 1446.39h-14.967c-.001 15.49-3.135 30.21-8.802 43.61-8.5 20.1-22.718 37.23-40.608 49.31s-39.417 19.13-62.657 19.13c-15.489 0-30.209-3.13-43.611-8.8-20.101-8.5-37.23-22.72-49.317-40.61s-19.136-39.41-19.139-62.64c.001-15.5 3.137-30.22 8.806-43.62 8.502-20.1 22.725-37.22 40.616-49.3a111.5 111.5 0 0 1 62.645-19.13c15.497 0 30.22 3.13 43.624 8.8 20.103 8.5 37.228 22.71 49.311 40.6s19.129 39.41 19.132 62.65h14.967c.001-17.52-3.554-34.25-9.984-49.45-9.647-22.81-25.744-42.18-46.015-55.88-20.266-13.69-44.748-21.69-71.035-21.69-17.515 0-34.24 3.55-49.441 9.98-22.805 9.65-42.189 25.74-55.887 46.01-13.7 20.26-21.709 44.74-21.706 71.03-.001 17.51 3.556 34.24 9.989 49.44 9.651 22.81 25.752 42.19 46.023 55.88 20.266 13.7 44.744 21.7 71.022 21.7 17.521 0 34.251-3.55 49.454-9.98 22.807-9.65 42.188-25.75 55.883-46.02 13.695-20.26 21.7-44.74 21.697-71.02zm584.588-379.55s-.54-1.46-.79-4.15c-.44-2.76-.37-6.62.2-11.29.1-2.41.98-4.76 1.7-7.37.85-2.54 1.33-5.5 2.94-7.97 1.43-2.58 2.76-5.37 4.44-8.01 1.43-2.83 3.96-4.83 5.92-7.32l6.64-6.7c2.5-1.82 5.19-3.3 7.67-4.88 2.45-1.57 4.96-2.9 7.29-4.14 2.35-1.22 4.93-1.62 7.14-2.28 8.99-2.42 15.02-2.74 15.02-2.74s-4.61 4.55-11.58 9.45c-1.69 1.33-3.71 2.4-5.54 3.97-1.76 1.69-3.55 3.45-5.54 5.09-1.99 1.65-3.89 3.47-6.07 5.03l-5.31 6c-1.76 2.03-4.11 3.59-5.37 5.95-1.43 2.21-3.13 4.2-4.67 6.25-1.67 1.96-2.71 4.19-4.02 6.18-1.09 2.06-2.71 3.87-3.52 5.79-1.9 3.77-3.76 6.93-4.75 9.3-1.23 2.34-1.8 3.84-1.8 3.84zm-903.571 0s-.556-1.5-1.784-3.84c-.984-2.37-2.855-5.53-4.755-9.3-.818-1.92-2.426-3.73-3.527-5.79-1.316-1.99-2.329-4.22-4.015-6.17-1.529-2.06-3.235-4.05-4.667-6.26-1.257-2.36-3.625-3.92-5.369-5.95l-5.32-6c-2.183-1.56-4.073-3.38-6.071-5.03-1.978-1.62-3.771-3.4-5.525-5.09-1.822-1.57-3.849-2.64-5.545-3.97-6.957-4.9-11.585-9.45-11.585-9.45s6.032.32 15.025 2.74c2.212.66 4.794 1.06 7.143 2.28 2.319 1.24 4.833 2.57 7.288 4.14 2.466 1.58 5.175 3.06 7.669 4.88l6.636 6.7c1.958 2.49 4.482 4.49 5.914 7.32 1.676 2.64 3.011 5.43 4.454 8.02 1.607 2.46 2.084 5.42 2.933 7.98.711 2.59 1.598 4.94 1.705 7.35.565 4.67.633 8.53.194 11.29-.253 2.69-.798 4.15-.798 4.15z" class="B"/><path d="M1449.42 1343.42c-255.26-65.64-408.98-325.78-343.36-581.02 6.75-26.186 15.55-51.268 26.16-75.179-126.5 57.799-226.77 170.119-264.1 315.309-65.646 255.25 88.08 515.39 343.34 581.02 229.08 58.9 462.05-58.88 554.87-268.17-95.9 43.82-206.85 56.34-316.91 28.04z" fill="#f4a133"/><path d="M1449.42 1343.42l1.86-7.25c-106.04-27.27-194.21-88.59-255.94-169.28s-96.94-180.73-96.94-285.33c0-38.71 4.82-78.06 14.91-117.3 6.64-25.773 15.31-50.463 25.75-74.006 1.26-2.851.63-6.163-1.58-8.355-2.22-2.193-5.54-2.781-8.37-1.485-64.24 29.352-121.81 72.546-168.08 126.836-46.26 54.3-81.21 119.71-100.16 193.42-10.411 40.47-15.39 81.09-15.39 121.05 0 107.97 36.34 211.17 100.01 294.41s154.74 146.55 264.1 174.67c40.47 10.4 81.07 15.38 121.02 15.38 189.71-.01 364.66-112.15 442.57-287.77 1.26-2.85.63-6.16-1.58-8.36-2.22-2.19-5.54-2.78-8.38-1.48-60.24 27.53-126.49 42.5-194.7 42.5-38.7 0-78.02-4.81-117.24-14.9l-1.86 7.25-1.87 7.25c40.45 10.4 81.03 15.37 120.97 15.37 70.4 0 138.78-15.46 200.92-43.86l-3.11-6.8-6.84-3.04c-75.44 170.15-245.09 278.88-428.88 278.87-38.71 0-78.05-4.82-117.29-14.9-106.03-27.27-194.21-88.59-255.94-169.28-61.72-80.68-96.931-180.71-96.931-285.31 0-38.72 4.821-78.07 14.921-117.33 18.38-71.47 52.23-134.82 97.06-187.43 44.82-52.61 100.63-94.483 162.9-122.933l-3.11-6.806-6.85-3.033c-10.76 24.28-19.71 49.753-26.55 76.342-10.41 40.47-15.39 81.07-15.39 121.03 0 107.97 36.34 211.18 100.02 294.42 63.67 83.25 154.74 146.57 264.1 174.69l1.87-7.25z" class="B"/><path d="M1330.63 1591.21h-.02c-38.71 0-78.05-4.82-117.29-14.9-106.03-27.27-194.21-88.59-255.94-169.28-61.72-80.68-96.931-180.71-96.931-285.31a466.34 466.34 0 0 1 1.581-38.37l26.96-1.3 28.87-2.13c13.53 199.77 152.87 377.21 357.41 429.79 39.86 10.25 79.83 15.16 119.17 15.16 110.54 0 216.03-38.72 299.61-106.17-88.19 107.76-221.59 172.51-363.42 172.51z" fill="#b57923"/><path d="M1330.56 1598.7c-39.3 0-79.27-4.9-119.1-15.15-228.22-58.68-375.27-272.83-356.96-499.96l7.53-.24a466.34 466.34 0 0 0-1.581 38.37c0 104.6 35.211 204.63 96.931 285.31 61.73 80.69 149.91 142.01 255.94 169.28 39.24 10.08 78.58 14.9 117.29 14.9h.02c141.83 0 275.23-64.75 363.42-172.51 9.36-7.55 18.44-15.46 27.23-23.72-88.5 126.42-234.53 203.72-390.72 203.72z" class="E"/><path d="M1123.82 968.559c-18.34-84.71-17.74-174.87 5.31-264.531a579.75 579.75 0 0 1 31.52-90.64c-152.51 69.69-273.41 205.121-318.42 380.171-7.11 27.65-12.05 55.35-15 82.93 0 0 315.42 3.2 296.59-107.93z" class="F"/><path d="M1123.82 968.559l7.31-1.58a563.78 563.78 0 0 1-12.77-119.3c0-46.8 5.82-94.35 18.02-141.788l-.01.003c8.03-31.146 18.5-61.01 31.12-89.472a7.47 7.47 0 0 0-1.58-8.355c-2.22-2.192-5.53-2.781-8.37-1.485-77.24 35.296-146.47 87.236-202.11 152.527-55.63 65.29-97.66 143.94-120.45 232.58-7.2 28.01-12.206 56.08-15.196 84-.225 2.1.446 4.2 1.85 5.77 1.403 1.58 3.405 2.49 5.516 2.51l2.79.01c7.55 0 29.83-.17 59.05-1.93 21.92-1.32 47.74-3.54 74.21-7.26 19.86-2.8 40.08-6.44 59.32-11.21 14.44-3.58 28.32-7.79 41.1-12.79 9.59-3.75 18.57-7.94 26.7-12.66 12.18-7.09 22.51-15.39 29.96-25.38 3.71-4.99 6.69-10.42 8.72-16.25 2.04-5.83 3.11-12.05 3.11-18.56a62.85 62.85 0 0 0-.92-10.63l-.06-.33-7.31 1.58-7.38 1.25c.48 2.83.7 5.54.7 8.13 0 5.13-.87 9.84-2.52 14.32-1.54 4.19-3.78 8.19-6.71 12.04-5.48 7.2-13.44 13.88-23.38 19.86-17.37 10.49-40.69 18.76-66.14 25.02-38.18 9.42-81.13 14.42-116.57 17.01-35.45 2.6-63.43 2.82-71.88 2.82h-2.64l-.07 7.48 7.44.8c2.91-27.23 7.79-54.57 14.81-81.87 22.219-86.4 63.15-162.99 117.34-226.6 54.2-63.61 121.67-114.231 196.94-148.624l-3.11-6.807-6.84-3.033c-12.95 29.203-23.7 59.85-31.93 91.806v.004c-12.51 48.654-18.49 97.474-18.49 145.514a578.94 578.94 0 0 0 13.11 122.47l7.32-1.59-7.38 1.25 7.38-1.25z" class="B"/><path d="M835.609 1068.99a572.82 572.82 0 0 1 13.87-73.57c22.219-86.4 63.15-162.99 117.34-226.6a567.59 567.59 0 0 1 56.35-57.341c-51.15 62.591-89.86 137.001-111.31 220.451-7.12 27.65-12.06 55.36-15 82.93l2.66.01c19.01 0 135.84-1.11 216.58-27.55-.39 1.68-.88 3.33-1.48 4.94-1.54 4.19-3.78 8.19-6.71 12.04-5.48 7.2-13.44 13.88-23.38 19.86-17.37 10.49-40.69 18.76-66.14 25.02-38.18 9.42-81.13 14.42-116.57 17.01-29.64 2.18-54.06 2.69-66.21 2.8z" fill="#0b5b72"/><path d="M829.919 1076.5c-1.76 0-2.69-.01-2.69-.01 2.95-27.58 7.89-55.28 15-82.93 33.86-131.7 110.67-240.95 211.6-316.659a576.14 576.14 0 0 0-30.66 34.578 567.59 567.59 0 0 0-56.35 57.341c-54.19 63.61-95.121 140.2-117.34 226.6a572.82 572.82 0 0 0-13.87 73.57c12.15-.11 36.57-.62 66.21-2.8 35.44-2.59 78.39-7.59 116.57-17.01 25.45-6.26 48.77-14.53 66.14-25.02 9.94-5.98 17.9-12.66 23.38-19.86 2.93-3.85 5.17-7.85 6.71-12.04.6-1.61 1.09-3.26 1.48-4.94 2.72-.89 5.42-1.82 8.06-2.77-11.95 89.39-265.24 91.95-294.24 91.95z" class="E"/><path d="M1137.6 1142.95l-4 6.1a37.31 37.31 0 0 1-5.33 6.5c-2.27 2.44-4.91 5.29-8.19 7.65l-5.03 3.98c-1.86 1.2-3.86 2.31-5.89 3.52-4 2.61-8.67 4.45-13.49 6.45-4.96 1.43-10.05 3.48-15.53 4.15-5.39 1.21-10.99 1.29-16.57 1.62-5.58-.33-11.2-.39-16.59-1.59-5.47-.67-10.55-2.73-15.52-4.15-4.8-2.02-9.48-3.83-13.48-6.43l-5.89-3.54-5.05-3.99c-3.3-2.37-5.86-5.16-8.09-7.58-2.35-2.27-4.09-4.57-5.39-6.55-2.69-3.87-4.04-6.13-4.04-6.13s2.49 1.2 6.46 3.36c1.91 1.16 4.41 2.33 7.21 3.62 2.81 1.33 5.86 2.83 9.35 4.13 3.4 1.48 7.15 2.74 11.11 4 3.85 1.51 8.25 2.04 12.45 3.4 4.42.73 8.89 1.65 13.51 1.99 4.58.68 9.29.64 13.96.87 4.68-.23 9.37-.17 13.96-.85 4.63-.33 9.09-1.27 13.52-1.99 4.19-1.38 8.61-1.87 12.45-3.4 3.96-1.26 7.73-2.52 11.11-4 3.52-1.32 6.49-2.78 9.26-4.09 2.75-1.24 5.3-2.46 7.26-3.67 4.06-2.24 6.47-3.38 6.47-3.38zm212.35 219.24c0 22.25-18.04 40.29-40.29 40.29-22.26 0-40.3-18.04-40.3-40.29 0-22.27 18.04-40.3 40.3-40.3 22.25 0 40.29 18.03 40.29 40.3zm-42.19-251.88c11.06-3.48 22.23-6.12 33.39-8.83l33.66-6.92c3.83-.71 7.53 1.86 8.22 5.7.27 1.5.06 2.96-.53 4.22l-.41.89c-4.31 9.37-9.16 18.44-13.75 27.67-4.68 9.17-9.71 18.15-14.55 27.24-4.9 9.05-10.18 17.9-15.25 26.85-5.13 8.93-10.64 17.64-15.94 26.47l-7.93-11.63 38.6-2.27c12.9-.45 25.82-.72 38.86-.12-12.41 4-24.96 7.13-37.53 10.08-12.57 2.96-25.21 5.44-37.85 7.91a7.6 7.6 0 0 1-8.95-6.01c-.36-1.74-.06-3.48.69-4.95l.34-.65 14.06-27.53 14.75-27.12 15.45-26.74 16.24-26.31 7.29 10.8c-11.4.8-22.86 1.24-34.31 1.57-11.5.13-22.97.35-34.55-.32zm143.73-116.211c30.68 3.47 60.93 8.72 91.02 14.63a7.09 7.09 0 0 1 5.59 8.31c-.34 1.67-1.21 3.09-2.43 4.1l-.57.47c-11.18 9.23-22.72 17.98-34.1 26.96l-34.66 26.18-35.16 25.51-35.74 24.76-3.95-13.84c33.25 4.04 66.45 8.65 99.48 15.49-33.69 1.63-67.2 1-100.67-.17-4.17-.15-7.44-3.65-7.28-7.81.08-2.3 1.17-4.32 2.81-5.63l.51-.41 34.23-26.77 34.79-26.02 35.28-25.35 35.86-24.58 2.59 12.88c-29.45-8.55-58.74-17.74-87.6-28.71zm148.9-88.67c36.77-1.41 73.41-.99 110.01.06 3.92.12 7.01 3.39 6.89 7.3-.06 1.77-.75 3.36-1.85 4.58l-.42.46c-11.77 12.87-23.99 25.32-36.01 37.98l-36.69 37.29-37.28 36.69-37.95 36.04-6.12-13.08c40.1-2.24 80.27-3.89 120.63-3.32-39.59 7.88-79.39 13.52-119.23 18.59-4.15.54-7.94-2.4-8.47-6.55a7.49 7.49 0 0 1 1.98-6.13l.37-.41 36.18-37.79 36.83-37.16 37.45-36.54 38.11-35.86 4.63 12.33c-36.43-3.78-72.8-8.21-109.06-14.48z" class="B"/><path d="M1246.31 623.308c0 30.031-24.33 54.353-54.35 54.353s-54.36-24.322-54.36-54.353c0-30.012 24.34-54.343 54.36-54.343s54.35 24.331 54.35 54.343z" fill="#00a9b1"/><path d="M1253.79 623.308h-14.96a46.84 46.84 0 0 1-3.68 18.247c-3.55 8.402-9.51 15.572-16.99 20.625-7.49 5.053-16.47 7.994-26.2 7.997-6.5-.001-12.64-1.311-18.25-3.679a47.02 47.02 0 0 1-20.62-16.984c-5.06-7.489-8-16.467-8-26.206 0-6.491 1.31-12.635 3.68-18.237 3.55-8.4 9.5-15.57 16.99-20.624 7.48-5.053 16.46-7.996 26.2-7.999a46.69 46.69 0 0 1 18.24 3.68c8.4 3.551 15.57 9.503 20.63 16.986 5.05 7.488 7.99 16.463 8 26.194h14.96a61.71 61.71 0 0 0-4.86-24.068c-4.7-11.105-12.53-20.53-22.39-27.195s-21.8-10.567-34.58-10.564c-8.52-.001-16.67 1.73-24.08 4.862a62.01 62.01 0 0 0-27.19 22.392c-6.67 9.858-10.57 21.794-10.57 34.573 0 8.52 1.73 16.674 4.86 24.077 4.7 11.108 12.53 20.533 22.4 27.198 9.86 6.665 21.8 10.564 34.58 10.561 8.51.001 16.67-1.729 24.07-4.86 11.11-4.698 20.53-12.527 27.2-22.392s10.57-21.799 10.56-34.584z" class="B"/></g><defs ><path id="B" d="M947.369 343.466c49.1-243.496 225.67-196.159 283.62-174.566-107.65-219.535-530.312-203.691-578.857-21.593 0 0 119.764 158.644 295.237 196.159z"/><path id="C" d="M947.369 343.466l7.34 1.479c7.8-38.695 18.83-69.708 31.94-94.42 9.84-18.537 20.85-33.534 32.6-45.639 17.62-18.149 36.9-29.836 56.68-37.08 19.78-7.235 40.09-9.989 59.56-9.989 19.03-.001 37.23 2.637 53.19 6.228 15.95 3.589 29.65 8.123 39.7 11.867 2.88 1.073 6.1.288 8.16-1.989s2.52-5.559 1.17-8.318c-13.99-28.533-33.14-53.2-55.92-74.083-34.19-31.33-76.52-54.177-122.24-69.224C1013.829 7.256 964.699.003 916.709 0c-63.09.015-124.22 12.502-173.152 36.794-24.459 12.157-45.88 27.29-62.847 45.416-16.961 18.115-29.445 39.275-35.809 63.169-.592 2.221-.127 4.602 1.258 6.437.227.293 30.463 40.331 82.926 85.191 26.235 22.427 58.033 46.063 94.463 66.509s77.501 37.698 122.261 47.268c1.95.418 3.99.036 5.66-1.06 1.68-1.097 2.84-2.818 3.24-4.779l-7.34-1.479 1.56-7.318c-42.98-9.187-82.68-25.829-118.06-45.684-53.064-29.775-96.373-66.78-126.337-96.313-14.983-14.765-26.633-27.658-34.515-36.832l-8.943-10.743-2.252-2.846-.553-.716-.131-.172-.029-.038-.005-.007-1.32.998 1.32-.997v-.001l-1.32.998 1.32-.997-5.972 4.509 7.231 1.928c5.685-21.304 16.773-40.222 32.276-56.798 11.625-12.424 25.738-23.503 41.839-33.117 24.147-14.424 52.762-25.539 83.943-33.019s64.918-11.335 99.288-11.334c61.98-.01 126 12.548 180.85 38.531 27.43 12.987 52.57 29.314 74.11 49.058s39.49 42.896 52.6 69.639l6.72-3.295 2.62-7.013c-10.52-3.917-24.85-8.666-41.65-12.444s-36.06-6.591-56.47-6.593c-18.55.001-38.06 2.329-57.44 8.432-14.53 4.575-28.98 11.279-42.83 20.674-20.77 14.086-40.12 34.223-56.45 62.006-16.34 27.787-29.7 63.195-38.74 108.025l7.34 1.479 1.56-7.318-1.56 7.318z"/></defs></svg>